<?xml version="1.0" encoding="UTF-8" standalone="no"?><!DOCTYPE svg PUBLIC "-//W3C//DTD SVG 1.1//EN" "http://www.w3.org/Graphics/SVG/1.1/DTD/svg11.dtd"><svg width="100%" height="100%" viewBox="0 0 625 334" version="1.1" xmlns="http://www.w3.org/2000/svg" xmlns:xlink="http://www.w3.org/1999/xlink" xml:space="preserve" xmlns:serif="http://www.serif.com/" style="fill-rule:evenodd;clip-rule:evenodd;stroke-linejoin:round;stroke-miterlimit:2;"><g><g><path d="M279.683,140.893l-14.784,-0.158l0,24.041l18.808,-0.307l-0,0.038c0,0 -5.497,1.015 -9.866,7.675c-4.324,6.591 -2.479,14.193 12.543,19.286c15.022,5.093 4.219,42.393 -43.061,19.057c-34.781,-17.167 -37.651,35.283 -83.811,34.405c-30.415,-0.578 -73.215,-15.845 -72.186,-82.738c1.03,-66.893 47.029,-88.661 74.818,-88.232c43.571,0.673 56.396,43.684 81.178,26.583c34.418,-23.75 61.297,5.941 43.445,15.034c-11.299,5.756 -16.275,9.53 -14.349,18.074c1.208,5.359 6.686,7.073 7.264,7.24Zm1.294,0.014l2.891,0l-0,0.031l-2.891,-0.031Zm-124.606,-49.378c-2.509,0 -4.177,1.978 -4.279,4.416c-0.102,2.438 1.81,4.429 3.045,5.263c5.712,3.856 18.527,6.404 23.978,11.34c11.397,-0.682 17.812,0.168 27.887,6.521c-2.551,1.535 -1.636,3.849 0.216,4.146c3.843,0.617 4.89,-2.536 3.795,-4.648c-4.044,-7.805 -14.278,-6.02 -24.152,-15.141c-8.674,0.905 -19.395,0 -28.918,-5.93c1.131,-0.481 2.01,-1.395 2.01,-3.044c0,-1.649 -1.073,-2.924 -3.583,-2.924Zm-2.255,128.45c2.509,0 3.583,-1.275 3.583,-2.924c0,-1.649 -0.879,-2.564 -2.01,-3.044c9.523,-5.93 20.244,-6.835 28.918,-5.93c9.873,-9.121 20.107,-7.336 24.152,-15.141c1.094,-2.112 0.047,-5.265 -3.795,-4.648c-1.851,0.297 -2.766,2.612 -0.216,4.146c-10.075,6.353 -16.49,7.203 -27.887,6.521c-5.451,4.936 -18.265,7.484 -23.978,11.34c-1.235,0.834 -3.147,2.826 -3.045,5.263c0.102,2.438 1.77,4.416 4.279,4.416Zm-9.527,-20.822c0,3.522 2.835,6.332 6.332,6.332c3.522,0 6.332,-2.835 6.332,-6.332c0,-3.522 -2.835,-6.332 -6.332,-6.332c-3.522,0 -6.332,2.835 -6.332,6.332Zm-26.55,9.466c0,3.522 2.835,6.332 6.332,6.332c3.522,0 6.332,-2.835 6.332,-6.332c0,-3.522 -2.835,-6.332 -6.332,-6.332c-3.522,0 -6.332,2.835 -6.332,6.332Zm-12.232,-20.67c0,2.113 1.701,3.799 3.799,3.799c2.113,0 3.799,-1.701 3.799,-3.799c0,-2.113 -1.701,-3.799 -3.799,-3.799c-2.113,0 -3.799,1.701 -3.799,3.799Zm61.572,5.827c0,2.113 1.701,3.799 3.799,3.799c2.113,0 3.799,-1.701 3.799,-3.799c0,-2.113 -1.701,-3.799 -3.799,-3.799c-2.113,0 -3.799,1.701 -3.799,3.799Zm-33.161,35.322c0,3.522 2.835,6.332 6.332,6.332c3.522,0 6.332,-2.835 6.332,-6.332c0,-3.522 -2.835,-6.332 -6.332,-6.332c-3.522,0 -6.332,2.835 -6.332,6.332Zm27.971,-7.443c0,3.522 2.835,6.332 6.332,6.332c3.522,0 6.332,-2.835 6.332,-6.332c0,-3.522 -2.835,-6.332 -6.332,-6.332c-3.522,0 -6.332,2.835 -6.332,6.332Zm36.8,-85.64l0,35.456c0,1.366 1.112,2.535 2.485,2.535l15.294,0c1.395,0 2.485,-1.135 2.485,-2.535l0,-35.456c0,-1.366 -1.112,-2.535 -2.485,-2.535l-15.294,0c-1.395,0 -2.485,1.135 -2.485,2.535Zm45.592,0l0,35.456c0,1.366 1.112,2.535 2.485,2.535l15.294,0c1.395,0 2.485,-1.135 2.485,-2.535l0,-35.456c0,-1.366 -1.112,-2.535 -2.485,-2.535l-15.294,0c-1.395,0 -2.485,1.135 -2.485,2.535Zm-55.727,1.851l1.454,31.863c0.085,1.871 1.707,3.438 3.62,3.438l-1.86,0c1.97,0 3.393,-1.539 3.306,-3.438l-1.454,-31.863c-0.085,-1.871 -1.707,-3.438 -3.62,-3.438l1.86,0c-1.97,0 -3.393,1.539 -3.306,3.438Zm-19.323,-2.027l0,35.671c0,2.095 1.726,3.849 3.855,3.849c2.144,0 3.855,-1.723 3.855,-3.849l0,-35.671c0,-2.095 -1.726,-3.849 -3.855,-3.849c-2.144,0 -3.855,1.723 -3.855,3.849Z"/><path d="M217.661,135.818l0,36.15c0,0.46 -0.373,0.833 -0.833,0.833l-15.342,0c-0.46,0 -0.833,-0.373 -0.833,-0.833l0,-36.15c0,-0.46 0.373,-0.833 0.833,-0.833l15.342,0c0.46,0 0.833,0.373 0.833,0.833Z"/><path d="M263.145,135.872l0,36.15c0,0.46 -0.373,0.833 -0.833,0.833l-15.342,0c-0.46,0 -0.833,-0.373 -0.833,-0.833l0,-36.15c0,-0.46 0.373,-0.833 0.833,-0.833l15.342,0c0.46,0 0.833,0.373 0.833,0.833Z"/><path d="M518.534,135.204l0,-3.108l-0.89,0l0,-0.632l-0.733,-0.413c0,0 -1.367,-3.203 -1.367,-6.877c1.285,0 2.966,-0.823 3.788,-0.823c0.823,0 2.631,0.823 4.055,0.823c0,2.745 -1.719,6.877 -1.719,6.877l-0.67,0.413l0,0.632l-0.986,0l0,3.009c5.143,-0.344 8.897,-0.583 9.577,-0.583c0,10.976 7.177,14.302 1.657,19.496c5.521,4.418 -1.657,5.997 -1.657,19.045c-0.706,0 -4.44,-0.267 -9.548,-0.656l0,2.989l0.986,0l0,0.632l0.67,0.413c0,0 1.719,4.132 1.719,6.877c-1.424,0 -3.232,0.823 -4.055,0.823c-0.823,0 -2.503,-0.823 -3.788,-0.823c0,-3.674 1.367,-6.877 1.367,-6.877l0.733,-0.413l0,-0.632l0.89,0l0,-3.102c-3.662,-0.28 -7.894,-0.611 -12.166,-0.945l0,2.796l0.986,0l0,0.632l0.67,0.413c0,0 1.719,4.132 1.719,6.877c-1.424,0 -3.232,0.823 -4.055,0.823c-0.823,0 -2.503,-0.823 -3.788,-0.823c0,-3.674 1.367,-6.877 1.367,-6.877l0.733,-0.413l0,-0.632l0.89,0l0,-2.912c-4.626,-0.362 -9.229,-0.721 -13.135,-1.018l0,2.751l0.986,0l0,0.632l0.67,0.413c0,0 1.719,4.132 1.719,6.877c-1.424,0 -3.232,0.823 -4.055,0.823c-0.823,0 -2.503,-0.823 -3.788,-0.823c0,-3.674 1.367,-6.877 1.367,-6.877l0.733,-0.413l0,-0.632l0.89,0l0,-2.863c-4.821,-0.364 -8.325,-0.611 -9.045,-0.611c0,-6.487 -6.504,-6.487 -6.504,-6.487l-8.36,0l0,-19.385l8.36,0c0,0 6.504,0 6.504,-6.038c0.717,0.026 4.209,-0.172 9.016,-0.479l0,-2.578l-0.89,0l0,-0.632l-0.733,-0.413c0,0 -1.367,-3.203 -1.367,-6.877c1.285,0 2.966,-0.823 3.788,-0.823c0.823,0 2.631,0.823 4.055,0.823c0,2.745 -1.719,6.877 -1.719,6.877l-0.67,0.413l0,0.632l-0.986,0l0,2.483c3.905,-0.252 8.507,-0.562 13.135,-0.877l0,-2.784l-0.89,0l0,-0.632l-0.733,-0.413c0,0 -1.367,-3.203 -1.367,-6.877c1.285,0 2.966,-0.823 3.788,-0.823c0.823,0 2.631,0.823 4.055,0.823c0,2.745 -1.719,6.877 -1.719,6.877l-0.67,0.413l0,0.632l-0.986,0l0,2.684c4.271,-0.291 8.503,-0.58 12.166,-0.827Zm-54.409,27.836l-14.705,0.251l0,-19.857l14.705,0.164l0,19.442Zm-15.452,0.263l-13.346,0.227l0,-20.255l13.346,0.149l0,19.878Zm-14.094,0.24l-12.669,0.216l0,-20.633l12.669,0.141l0,20.276Zm-13.416,0.229l-12.092,0.206l0,-20.995l12.092,0.135l0,20.654Zm-12.839,0.219l-11.24,0.192l0,-21.333l11.24,0.125l0,21.016Zm-11.987,0.204l-10.636,0.181l0,-21.654l10.636,0.119l0,21.354Zm-11.383,0.194l-9.949,0.17l0,-21.956l9.949,0.111l0,21.675Zm-10.697,0.182l-9.372,0.16l0,-22.241l9.372,0.105l0,21.977Zm-10.119,0.172l-8.824,0.15l0,-22.511l8.824,0.098l0,22.262Zm-9.571,0.163l-8.32,0.142l0,-22.767l8.32,0.093l0,22.532Zm-9.067,0.155l-7.868,0.134l0,-23.01l7.868,0.088l0,22.788Zm-8.615,0.147l-7.369,0.126l0,-23.239l7.369,0.082l0,23.031Zm-8.116,0.138l-6.874,0.117l0,-23.454l6.874,0.077l0,23.26Zm-7.621,0.13l-6.436,0.11l0,-23.656l6.436,0.072l0,23.475Zm-7.183,0.122l-6.09,0.104l0,-23.849l6.09,0.068l0,23.677Zm-6.837,0.117l-5.72,0.097l0,-24.031l5.72,0.064l0,23.87Zm-6.467,0.11l-5.357,0.091l0,-24.204l5.357,0.06l0,24.053Zm-6.104,0.104l-4.98,0.085l0,-24.365l4.98,0.056l0,24.225Zm-5.727,0.098l-4.716,0.08l0,-24.519l4.716,0.053l0,24.386Zm-5.463,0.093l-4.433,0.076l0,-24.665l4.433,0.049l0,24.54Zm-5.181,0.088l-4.027,0.069l0,-24.8l4.027,0.045l0,24.686Zm-4.774,0.081l-3.682,0.063l0,-24.925l3.682,0.041l0,24.821Zm-4.429,0.075l-4.138,0.071l0,-25.063l4.138,0.046l0,24.946Zm5.88,-12.641c0,0.68 0.567,1.268 1.266,1.268c0.679,0 1.266,-0.568 1.266,-1.268c0,-0.68 -0.567,-1.268 -1.266,-1.268c-0.679,0 -1.266,0.568 -1.266,1.268Zm10.345,-0.068c-0.036,0.679 0.5,1.296 1.198,1.332c0.678,0.036 1.294,-0.501 1.331,-1.2c0.036,-0.679 -0.5,-1.296 -1.198,-1.332c-0.678,-0.036 -1.294,0.501 -1.331,1.2Zm11.512,-0.064c-0.036,0.679 0.5,1.296 1.198,1.332c0.678,0.036 1.294,-0.501 1.331,-1.2c0.036,-0.679 -0.5,-1.296 -1.198,-1.332c-0.678,-0.036 -1.294,0.501 -1.331,1.2Zm12.953,-0.013c-0.036,0.679 0.5,1.296 1.198,1.332c0.678,0.036 1.294,-0.501 1.331,-1.2c0.036,-0.679 -0.5,-1.296 -1.198,-1.332c-0.678,-0.036 -1.294,0.501 -1.331,1.2Zm48.704,0.015c-0.036,0.679 0.5,1.296 1.198,1.332c0.678,0.036 1.294,-0.501 1.331,-1.2c0.036,-0.679 -0.5,-1.296 -1.198,-1.332c-0.678,-0.036 -1.294,0.501 -1.331,1.2Zm20.263,0c-0.036,0.679 0.5,1.296 1.198,1.332c0.678,0.036 1.294,-0.501 1.331,-1.2c0.036,-0.679 -0.5,-1.296 -1.198,-1.332c-0.678,-0.036 -1.294,0.501 -1.331,1.2Zm23.049,0c-0.036,0.679 0.5,1.296 1.198,1.332c0.678,0.036 1.294,-0.501 1.331,-1.2c0.036,-0.679 -0.5,-1.296 -1.198,-1.332c-0.678,-0.036 -1.294,0.501 -1.331,1.2Zm25.329,0c-0.036,0.679 0.5,1.296 1.198,1.332c0.678,0.036 1.294,-0.501 1.331,-1.2c0.036,-0.679 -0.5,-1.296 -1.198,-1.332c-0.678,-0.036 -1.294,0.501 -1.331,1.2Zm-95.053,-5.417c-0.036,0.679 0.5,1.296 1.198,1.332c0.678,0.036 1.294,-0.501 1.331,-1.2c0.036,-0.679 -0.5,-1.296 -1.198,-1.332c-0.678,-0.036 -1.294,0.501 -1.331,1.2Zm-0.05,11.638c-0.036,0.679 0.5,1.296 1.198,1.332c0.678,0.036 1.294,-0.501 1.331,-1.2c0.036,-0.679 -0.5,-1.296 -1.198,-1.332c-0.678,-0.036 -1.294,0.501 -1.331,1.2Zm156.583,-17.55l0,0.247c0,1.397 1.133,2.517 2.53,2.517c1.357,0 2.53,-1.127 2.53,-2.517l0,-0.247c0,-1.397 -1.133,-2.517 -2.53,-2.517c-1.357,0 -2.53,1.127 -2.53,2.517Zm14.694,-0.709l0,0.247c0,1.397 1.133,2.517 2.53,2.517c1.357,0 2.53,-1.127 2.53,-2.517l0,-0.247c0,-1.397 -1.133,-2.517 -2.53,-2.517c-1.357,0 -2.53,1.127 -2.53,2.517Zm13.578,-1.099l0,0.247c0,1.397 1.133,2.517 2.53,2.517c1.357,0 2.53,-1.127 2.53,-2.517l0,-0.247c0,-1.397 -1.133,-2.517 -2.53,-2.517c-1.357,0 -2.53,1.127 -2.53,2.517Zm-28.273,25.18c0,1.39 1.174,2.517 2.53,2.517c1.398,0 2.53,-1.12 2.53,-2.517l0,-0.247c0,-1.39 -1.174,-2.517 -2.53,-2.517c-1.398,0 -2.53,1.12 -2.53,2.517l0,0.247Zm14.694,1.052c0,1.39 1.174,2.517 2.53,2.517c1.398,0 2.53,-1.12 2.53,-2.517l0,-0.247c0,-1.39 -1.174,-2.517 -2.53,-2.517c-1.398,0 -2.53,1.12 -2.53,2.517l0,0.247Zm13.608,1.145c0,1.39 1.174,2.517 2.53,2.517c1.398,0 2.53,-1.12 2.53,-2.517l0,-0.247c0,-1.39 -1.174,-2.517 -2.53,-2.517c-1.398,0 -2.53,1.12 -2.53,2.517l0,0.247Z"/></g></g></svg>