<?xml version="1.0" encoding="UTF-8" standalone="no"?><!DOCTYPE svg PUBLIC "-//W3C//DTD SVG 1.1//EN" "http://www.w3.org/Graphics/SVG/1.1/DTD/svg11.dtd"><svg width="100%" height="100%" viewBox="0 0 625 334" version="1.1" xmlns="http://www.w3.org/2000/svg" xmlns:xlink="http://www.w3.org/1999/xlink" xml:space="preserve" xmlns:serif="http://www.serif.com/" style="fill-rule:evenodd;clip-rule:evenodd;stroke-linejoin:round;stroke-miterlimit:2;"><g><path d="M551.274,191.885c-0.027,-0.256 -0.192,-0.628 -0.356,-0.828l-1.441,-1.706c1.199,-1.641 -0.298,-1.641 -0.298,-1.641c-0.256,-0.003 -0.454,-0.206 -0.436,-0.466l0.115,-1.995c5.672,0.563 11.267,1.338 16.322,2.422c0,0 -0.648,-8.403 3.335,-11.526c3.983,-3.123 0.162,-7.162 0.162,-7.162c0,0 3.877,-1.29 -0.913,-8.456c-4.791,-7.165 -1.506,-10.663 -1.506,-10.663c0,0 -7.157,0.946 -17.139,1.641l0.012,-1.809c2.525,0.038 0.96,-0.984 0.96,-0.984c-0.218,-0.147 -0.253,-0.418 -0.094,-0.619l1.567,-1.897c0.162,-0.203 0.303,-0.575 0.321,-0.834l0.256,-4.605c0.015,-0.256 -0.174,-0.51 -0.433,-0.563l-3.751,-0.793c-0.25,-0.044 -0.651,-0.021 -0.902,0.065l-3.114,1.123c-0.239,0.091 -0.398,0.368 -0.351,0.622l0.881,4.587c0.047,0.247 0.233,0.604 0.41,0.787l1.567,1.609c-1.084,1.715 0.41,1.612 0.41,1.612c0.259,-0.018 0.477,0.183 0.477,0.436l0.027,1.376c-4.517,0.286 -9.508,0.516 -14.664,0.575l-0.053,-2.18c2.522,0.035 0.958,-0.987 0.958,-0.987c-0.218,-0.147 -0.256,-0.415 -0.094,-0.619l1.57,-1.894c0.162,-0.203 0.303,-0.575 0.321,-0.834l0.259,-4.602c0.015,-0.256 -0.174,-0.51 -0.433,-0.563l-3.748,-0.79c-0.253,-0.047 -0.651,-0.021 -0.902,0.065l-3.117,1.12c-0.236,0.094 -0.395,0.371 -0.351,0.622l0.881,4.587c0.047,0.247 0.233,0.604 0.41,0.787l1.567,1.609c-1.084,1.715 0.41,1.612 0.41,1.612c0.259,-0.018 0.483,0.177 0.495,0.436l0.088,1.65c-4.717,0.027 -9.505,-0.082 -14.11,-0.421l0.015,-1.399c2.522,0.041 0.958,-0.987 0.958,-0.987c-0.221,-0.144 -0.256,-0.415 -0.094,-0.619l1.57,-1.894c0.162,-0.203 0.306,-0.577 0.321,-0.834l0.259,-4.602c0.012,-0.259 -0.177,-0.513 -0.436,-0.566l-3.751,-0.787c-0.25,-0.05 -0.651,-0.021 -0.899,0.062l-3.114,1.123c-0.239,0.091 -0.398,0.368 -0.354,0.619l0.881,4.587c0.047,0.253 0.233,0.604 0.41,0.793l1.567,1.609c-1.084,1.715 0.412,1.609 0.412,1.609c0.259,-0.018 0.474,0.18 0.477,0.436l0.021,0.734c-3.427,-0.303 -6.726,-0.722 -9.782,-1.314c0,0 -4.063,6.055 -15.892,6.417l-0.312,20.306l0.124,0c0,0 13.927,2.154 15.654,7.039c0,0 3.942,-0.171 10.026,-0.227l-0.162,1.995c-2.513,-0.221 -1.034,0.91 -1.034,0.91c0.206,0.159 0.23,0.442 0.047,0.625l-1.697,1.78c-0.174,0.192 -0.348,0.548 -0.386,0.804l-0.583,4.584c-0.038,0.25 0.138,0.516 0.392,0.592l3.674,1.052c0.25,0.074 0.654,0.071 0.902,0l3.194,-0.89c0.245,-0.074 0.427,-0.333 0.398,-0.586l-0.548,-4.637c-0.027,-0.256 -0.194,-0.631 -0.356,-0.828l-1.441,-1.706c1.196,-1.644 -0.298,-1.641 -0.298,-1.641c-0.256,-0.003 -0.454,-0.206 -0.436,-0.466l0.088,-1.585c4.128,-0.021 9.06,0.032 14.398,0.209l-0.265,2.434c-2.513,-0.221 -1.034,0.91 -1.034,0.91c0.206,0.159 0.23,0.442 0.047,0.625l-1.697,1.78c-0.177,0.189 -0.348,0.548 -0.389,0.801l-0.583,4.584c-0.038,0.25 0.141,0.519 0.392,0.592l3.677,1.049c0.25,0.074 0.654,0.071 0.899,0.003l3.194,-0.89c0.245,-0.074 0.427,-0.333 0.398,-0.586l-0.548,-4.637c-0.029,-0.253 -0.192,-0.628 -0.359,-0.825l-1.438,-1.709c1.196,-1.638 -0.298,-1.641 -0.298,-1.641c-0.253,0 -0.454,-0.206 -0.439,-0.463l0.115,-1.953c4.643,0.189 9.499,0.471 14.363,0.916l-0.2,2.581c-2.51,-0.218 -1.034,0.91 -1.034,0.91c0.206,0.159 0.23,0.442 0.047,0.625l-1.697,1.78c-0.174,0.192 -0.348,0.554 -0.386,0.804l-0.583,4.584c-0.038,0.25 0.141,0.519 0.392,0.592l3.674,1.052c0.25,0.074 0.654,0.071 0.902,0l3.194,-0.89c0.245,-0.074 0.427,-0.333 0.398,-0.586l-0.53,-4.661Zm-36.507,-31.793c-1.04,-1.04 -1.043,-2.728 0,-3.771c1.043,-1.043 2.731,-1.04 3.771,0c1.043,1.043 1.043,2.728 0,3.771c-1.043,1.043 -2.731,1.04 -3.771,0Zm16.21,-3.93c1.043,-1.043 2.731,-1.04 3.771,0c1.043,1.043 1.043,2.728 0,3.771c-1.043,1.043 -2.728,1.043 -3.771,0c-1.04,-1.04 -1.04,-2.731 0,-3.771Zm-16.154,22.619c-0.984,-0.984 -0.984,-2.575 -0.003,-3.556c0.981,-0.981 2.575,-0.984 3.559,0c0.981,0.981 0.981,2.572 -0.003,3.556c-0.984,0.984 -2.572,0.981 -3.553,0Zm32.418,-22.943c1.011,-1.011 2.652,-1.014 3.662,-0.003c1.019,1.019 1.014,2.652 0,3.665c-1.014,1.014 -2.646,1.019 -3.665,0c-1.008,-1.014 -1.008,-2.652 0.003,-3.662Zm-16.157,24.018c-1.011,-1.011 -1.011,-2.649 0.003,-3.662c1.014,-1.014 2.652,-1.014 3.662,-0.003c1.019,1.019 1.014,2.652 0,3.665c-1.014,1.014 -2.646,1.019 -3.665,0Zm15.939,1.184c-0.981,-0.981 -0.981,-2.572 0,-3.553c0.984,-0.984 2.575,-0.984 3.556,-0.003c0.984,0.984 0.984,2.575 0,3.559c-0.981,0.981 -2.572,0.981 -3.556,-0.003Zm-370.689,36.681c-1.547,-1.547 -4.054,-1.55 -5.601,-0.003c-1.547,1.547 -1.544,4.054 0.003,5.601c1.547,1.547 4.054,1.55 5.601,0.003c1.547,-1.547 1.544,-4.054 -0.003,-5.601Zm-3.874,3.874c-0.595,-0.595 -0.595,-1.562 -0.003,-2.154c0.592,-0.592 1.559,-0.592 2.154,0.003c0.595,0.595 0.595,1.562 0.003,2.154c-0.592,0.592 -1.559,0.592 -2.154,-0.003Zm110.409,-4.396c0.165,-1.78 -1.055,-2.728 -2.372,-3.55c-3.866,-2.404 -7.036,-5.415 -8.892,-9.687c-3.477,-8.008 -1.128,-16.968 5.916,-21.573c1.859,-1.211 6.635,-2.958 8.898,-3.919l4.116,-0.027l0.477,-26.658l1.217,0.021l-0.477,26.628l4.944,-0.035l0.351,-26.472l1.214,0.018l-0.348,26.446l5.403,-0.035l0.41,-26.213l1.217,0.021l-0.404,26.184l5.851,-0.041l0.389,-26.163l-5.345,-0.141c0.012,-0.106 0.024,-0.224 0.027,-0.303c-0.08,-5.224 -0.474,-10.403 -1.859,-15.471c-1.276,-4.676 -2.955,-9.189 -5.804,-13.158c-6.944,-9.673 -16.372,-14.039 -28.252,-12.772c-5.059,0.539 -9.732,2.46 -14.34,4.511c-4.399,1.959 -8.718,4.122 -13.226,5.784c-6.423,2.375 -12.619,1.553 -18.223,-2.501c-2.263,-1.644 -4.458,-3.397 -6.529,-5.28c-5.138,-4.661 -10.153,-9.452 -15.754,-13.579c-14.643,-10.801 -30.98,-15.394 -49.056,-12.922c-15.215,2.08 -27.542,9.646 -37.435,21.178c-8.989,10.474 -14.057,22.795 -16.134,36.381c-1.688,11.016 -1.989,22.106 -1.447,33.219c0.454,9.287 2.115,18.355 5.754,26.961c5.227,12.374 13.282,22.451 24.649,29.752c12.943,8.311 27.112,10.754 42.152,8.447c12.089,-1.859 22.878,-6.897 32.518,-14.316c5.088,-3.916 9.87,-8.226 14.79,-12.368c0.825,-0.689 3.005,-2.386 3.618,-2.811c6.211,-4.355 12.99,-5.342 20.091,-2.814c3.977,1.408 7.79,3.329 11.605,5.165c5.451,2.628 10.884,5.274 17.009,5.937c3.485,0.374 6.965,0.359 10.312,-0.907c1.417,-0.539 2.793,-1.184 2.967,-2.932Zm3.267,-65.611l-0.43,26.87l-1.217,-0.021l0.43,-26.87l1.217,0.021Zm-2.716,-28.709c3.173,3.155 3.105,8.338 -0.153,11.614c-3.217,3.229 -8.382,3.297 -11.532,0.153c-3.191,-3.191 -3.117,-8.314 0.165,-11.614c3.235,-3.241 8.35,-3.312 11.52,-0.153Zm-21.876,58.893c-0.003,0.227 -0.097,0.439 -0.262,0.598c-0.165,0.159 -0.377,0.242 -0.607,0.236l-14.929,-0.321c-0.454,-0.012 -0.849,-0.418 -0.834,-0.875l0.675,-30.998c0.003,-0.227 0.097,-0.439 0.262,-0.598c0.165,-0.159 0.377,-0.242 0.604,-0.239l14.929,0.321c0.218,0.006 0.424,0.094 0.583,0.253c0.168,0.168 0.262,0.386 0.253,0.619l-0.675,31.004Zm-64.856,-33.378l14.929,0.321c0.218,0.006 0.424,0.094 0.583,0.253c0.168,0.168 0.262,0.386 0.253,0.619l-0.672,31.001c-0.003,0.227 -0.097,0.439 -0.262,0.598c-0.165,0.159 -0.377,0.242 -0.607,0.236l-14.929,-0.321c-0.457,-0.015 -0.846,-0.421 -0.834,-0.875l0.672,-31.001c0.003,-0.227 0.097,-0.439 0.262,-0.598c0.162,-0.156 0.377,-0.242 0.604,-0.233Zm-12.407,-5.801l1.028,-0.027c1.338,-0.041 2.469,1.025 2.507,2.366l1.075,37.344c0.038,1.341 -1.028,2.472 -2.366,2.507l-1.025,0.029c-1.341,0.038 -2.472,-1.022 -2.51,-2.363l-1.072,-37.353c-0.038,-1.341 1.025,-2.463 2.363,-2.504Zm-54.368,59.4c-2.41,-2.41 -2.41,-6.311 0,-8.721c2.41,-2.41 6.314,-2.407 8.721,-0c2.41,2.41 2.413,6.314 0.003,8.724c-2.41,2.41 -6.314,2.407 -8.724,-0.003Zm32.73,-16.856l1.04,-43.472c0.032,-1.341 1.155,-2.41 2.495,-2.378l3.5,0.082c1.341,0.032 2.41,1.155 2.372,2.495l-1.04,43.472c-0.029,1.338 -1.155,2.41 -2.495,2.378l-3.5,-0.082c-1.341,-0.032 -2.41,-1.155 -2.372,-2.495Zm-5.209,8.939c2.41,-2.41 6.314,-2.407 8.721,-0c2.407,2.407 2.41,6.311 0,8.721c-2.41,2.41 -6.314,2.407 -8.721,0c-2.407,-2.407 -2.41,-6.311 0,-8.721Zm-16.157,28.544c-2.41,-2.41 -2.41,-6.317 -0.003,-8.724c2.41,-2.41 6.314,-2.407 8.724,0.003c2.41,2.41 2.41,6.311 -0,8.721c-2.407,2.407 -6.311,2.41 -8.721,0Zm27.898,2.26c-2.41,-2.41 -2.407,-6.314 0,-8.721c2.41,-2.41 6.314,-2.407 8.721,-0c2.407,2.407 2.41,6.311 0,8.721c-2.404,2.41 -6.311,2.41 -8.721,0Zm91.662,-30.267c0,0 -32.875,10.359 -53.198,19.333c0,0 -19.133,10.129 -16.605,-5.975c0,0 3.45,-12.925 2.478,-21.652l-0.669,-6.408l1.081,-0.003l-0.006,0.289c-0.015,0.563 0.215,1.111 0.613,1.508c0.377,0.377 0.878,0.595 1.417,0.604l14.929,0.321c0.554,0.012 1.075,-0.192 1.482,-0.575c0.398,-0.386 0.631,-0.902 0.639,-1.453l0.018,-0.778l30.703,-0.121l-0.038,1.671c-0.015,0.563 0.215,1.111 0.613,1.508c0.377,0.377 0.878,0.595 1.417,0.604l14.929,0.321c0.554,0.012 1.075,-0.192 1.482,-0.575c0.401,-0.383 0.631,-0.902 0.639,-1.453l0.044,-2.154l5.607,-0.021l0.489,-28.414l1.217,0.021l-0.486,28.387l3.868,-0.015l0.424,-28.39l1.22,0.018l-0.424,28.367l1.892,-0.006c0,0 -4.416,2.048 -8.185,10.341c0.006,0.012 -1.397,3.135 -7.59,4.696Zm17.831,-15.68l0.433,-27.439l1.217,0.021l-0.433,27.433l-1.217,-0.015Zm-141.592,15.898c-1.547,-1.547 -4.051,-1.547 -5.598,0c-1.547,1.547 -1.547,4.051 -0,5.598c1.547,1.547 4.054,1.55 5.601,0.003c1.547,-1.547 1.544,-4.054 -0.003,-5.601Zm-3.874,3.874c-0.595,-0.595 -0.592,-1.559 -0,-2.151c0.592,-0.592 1.559,-0.592 2.151,0c0.592,0.592 0.595,1.562 0.003,2.154c-0.592,0.592 -1.562,0.589 -2.154,-0.003Zm31.396,2.534c1.547,-1.547 1.544,-4.054 -0.003,-5.601c-1.547,-1.547 -4.054,-1.55 -5.601,-0.003c-1.547,1.547 -1.544,4.054 0.003,5.601c1.547,1.547 4.054,1.55 5.601,0.003Zm-3.877,-3.877c0.592,-0.592 1.559,-0.592 2.154,0.003c0.595,0.595 0.595,1.562 0.003,2.154c-0.592,0.592 -1.559,0.592 -2.154,-0.003c-0.595,-0.595 -0.595,-1.562 -0.003,-2.154Zm-12.277,18.093c-1.547,-1.547 -4.057,-1.547 -5.604,-0c-1.547,1.547 -1.544,4.054 0.003,5.601c1.547,1.547 4.051,1.547 5.598,0c1.547,-1.547 1.55,-4.054 0.003,-5.601Zm-3.88,3.88c-0.595,-0.595 -0.595,-1.562 -0.003,-2.154c0.592,-0.592 1.562,-0.595 2.157,0c0.595,0.595 0.589,1.562 -0.003,2.154c-0.592,0.592 -1.556,0.595 -2.151,0Zm208.473,-41.319l-8.199,0.05l0.354,-25.02l8.158,0.215l-0.312,24.755Zm-9.419,0.062l-7.984,0.053l0.336,-25.326l7.999,0.209l-0.351,25.064Zm-9.207,0.062l-7.342,0.047l0.345,-25.606l7.333,0.192l-0.336,25.367Zm-8.565,0.056l-6.491,0.044l0.247,-25.868l6.588,0.171l-0.345,25.653Zm144.665,-21.864l16.216,0.424c0.091,0.003 0.171,0 0.265,0.006l-0.315,20.332l-16.481,0.112l0.315,-20.874Zm-158.51,-4.154l6.382,0.165l-0.247,25.904l-6.523,0.047l0.389,-26.116Zm50.882,25.762l-8.627,0.065l0.315,-24.71l8.571,0.221l-0.259,24.425Zm106.098,-0.728l-15.162,0.106l0.321,-21.416l15.156,0.401l-0.315,20.91Zm-16.378,0.115l-13.856,0.097l0.327,-21.911l13.848,0.359l-0.318,21.455Zm-67.8,0.466l-20.703,0.144l0.259,-24.389l9.735,0.253l-0.354,23.989l1.217,0.021l0.356,-23.974l9.841,0.259l-0.351,23.697Zm52.724,-0.362l-13.087,0.094l0.336,-22.386l13.079,0.339l-0.327,21.953Zm-40.659,0.277l-10.848,0.077l0.354,-23.659l10.842,0.283l-0.348,23.299Zm26.354,-0.174l-12.348,0.08l0.348,-22.828l12.33,0.321l-0.33,22.427Zm-13.559,0.094l-11.576,0.08l0.345,-23.261l11.57,0.303l-0.339,22.878Zm-130.002,-46.752c-1.205,1.205 -3.158,1.202 -4.363,-0.003c-1.205,-1.205 -1.205,-3.155 0,-4.36c1.205,-1.205 3.158,-1.202 4.36,-0c1.205,1.205 1.208,3.158 0.003,4.363Z" style="fill-rule:nonzero;"/></g></svg>