<?xml version="1.0" encoding="UTF-8" standalone="no"?><!DOCTYPE svg PUBLIC "-//W3C//DTD SVG 1.1//EN" "http://www.w3.org/Graphics/SVG/1.1/DTD/svg11.dtd"><svg width="100%" height="100%" viewBox="0 0 625 334" version="1.1" xmlns="http://www.w3.org/2000/svg" xmlns:xlink="http://www.w3.org/1999/xlink" xml:space="preserve" xmlns:serif="http://www.serif.com/" style="fill-rule:evenodd;clip-rule:evenodd;stroke-linejoin:round;stroke-miterlimit:2;"><path d="M545.564,165.476c-0.53,-0.412 -1.709,-1.002 -1.12,-1.827c0.295,-0.412 0.737,-0.678 1.12,-1.002c0.383,-0.324 0.678,-0.737 0.884,-1.179c0.265,-0.619 0.383,-1.326 0.265,-1.974c-0.295,-1.768 -2.475,-3.83 -3.536,-7.13c-1.031,-3.329 -0.53,-7.955 -0.53,-7.955l-3.418,1.355c-3.447,1.09 -6.983,1.797 -10.518,2.269l0,-1.296l0.118,0c0.354,0 0.737,-0.324 0.737,-0.678c0,-0.118 -0.029,-0.265 -0.088,-0.383l1.414,-1.179l0.501,-4.802c0,0 -3.005,0.177 -3.447,-0.972l-0.324,0.029c-0.442,1.149 -3.447,0.972 -3.447,0.972l0.501,4.802l1.414,1.179c-0.059,0.118 -0.118,0.236 -0.118,0.354c0,0.354 0.324,0.678 0.707,0.707l0.177,0l0,1.532c-3.359,0.354 -6.659,0.412 -9.841,0.354l0,-1.886l0.177,0c0.354,0 0.678,-0.324 0.678,-0.678c0,-0.118 -0.029,-0.265 -0.088,-0.383l1.414,-1.179l0.501,-4.802c0,0 -3.005,0.177 -3.447,-0.972l-0.295,0c-0.442,1.149 -3.447,0.972 -3.447,0.972l0.501,4.802l1.414,1.179c-0.059,0.118 -0.118,0.236 -0.088,0.383c0,0.354 0.295,0.707 0.707,0.707l0.177,0l0,1.827c-3.801,-0.147 -7.366,-0.53 -10.459,-0.972l0,-0.884l0.177,0c0.354,0 0.678,-0.324 0.678,-0.678c0,-0.118 -0.029,-0.265 -0.118,-0.354l1.414,-1.179l0.501,-4.802c0,0 -3.005,0.177 -3.447,-0.972l-0.295,0c-0.442,1.149 -3.447,0.972 -3.447,0.972l0.501,4.802l1.414,1.179c-0.059,0.118 -0.118,0.236 -0.088,0.383c0,0.354 0.295,0.707 0.678,0.678l0.177,0l0,0.589c-6.069,-1.002 -10.017,-2.121 -10.017,-2.121c-6.835,9.133 -14.879,9.281 -14.879,9.281l-196.369,-3.388c0,0 -23.482,-0.265 -18.915,-16.263c3.742,-13.17 18.974,-11.196 24.189,-10.106c0.678,0.147 1.208,-0.619 0.825,-1.179c-11.932,-19.593 -38.832,-23.629 -59.397,-17.501c-8.191,2.416 -14.967,7.66 -23.894,7.277c-1.915,-0.088 -3.86,-0.383 -5.716,-0.884c-8.839,-2.416 -15.232,-10.224 -22.745,-15.026c-8.957,-5.716 -19.151,-7.248 -29.581,-5.598c-7.395,1.149 -14.289,4.39 -19.799,9.428c-17.177,15.586 -20.624,40.718 -20.801,63.05c0,2.062 -0.029,4.095 0.029,6.099c0.147,10.99 0.854,22.068 4.066,32.586c5.981,19.828 22.244,35.974 44.194,34.118c13.347,-1.149 25.338,-8.544 35.738,-16.529c20.948,-16.116 29.257,3.506 54.447,3.712c21.361,0.147 32.88,-13.789 35.856,-18.061c0.354,-0.53 0.029,-1.208 -0.589,-1.237c-4.213,-0.206 -16.47,-1.856 -16.912,-13.494c-0.972,-14.172 14.407,-15.114 14.407,-15.114c0.177,0 200.612,-2.799 200.612,-2.799c0,0 8.073,0.118 14.879,9.281c0,0 3.977,-1.149 10.047,-2.092l0,1.002l-0.177,0c-0.354,0 -0.678,0.324 -0.678,0.678c0,0.118 0.029,0.265 0.088,0.383l-1.414,1.179l-0.501,4.802c0,0 3.005,-0.177 3.447,0.972l0.295,0c0.442,-1.149 3.447,-0.972 3.447,-0.972l-0.501,-4.802l-1.414,-1.179c0.059,-0.118 0.118,-0.236 0.088,-0.383c0,-0.412 -0.295,-0.707 -0.707,-0.707l-0.177,-0l0,-1.296c2.946,-0.412 6.305,-0.766 9.841,-0.943l0,2.239l-0.177,0c-0.412,0 -0.707,0.295 -0.707,0.707c0,0.118 0.029,0.265 0.118,0.354l-1.414,1.179l-0.501,4.802c0,0 3.005,-0.177 3.447,0.972l0.295,0c0.442,-1.149 3.447,-0.972 3.447,-0.972l-0.501,-4.802l-1.414,-1.179c0.059,-0.118 0.118,-0.236 0.088,-0.383c0.029,-0.383 -0.295,-0.707 -0.678,-0.678l-0.177,-0l0,-2.357c3.359,-0.118 6.865,-0.029 10.459,0.324l0,2.003l-0.177,0c-0.383,0.029 -0.678,0.324 -0.707,0.707c0,0.118 0.029,0.265 0.118,0.354l-1.414,1.179l-0.501,4.802c0,0 3.005,-0.177 3.447,0.972l0.295,0c0.442,-1.149 3.447,-0.972 3.447,-0.972l-0.501,-4.802l-1.414,-1.179c0.059,-0.118 0.118,-0.236 0.118,-0.354c0,-0.354 -0.324,-0.678 -0.707,-0.707l-0.177,0l0,-1.768c3.536,0.471 7.101,1.149 10.518,2.269l3.418,1.355c0,0 -0.53,-4.655 0.53,-7.955c0.236,-0.707 0.501,-1.385 0.825,-2.062c0.471,-1.002 1.12,-1.945 1.679,-2.858c0.589,-1.002 1.179,-2.062 1.002,-3.241c0.324,-0.737 -0.088,-1.562 -0.737,-2.033Zm-425.737,30.288c-1.473,0 -2.652,-1.179 -2.652,-2.652c0,-1.473 1.179,-2.652 2.652,-2.652c1.473,0 2.652,1.179 2.652,2.652c-0,1.473 -1.179,2.652 -2.652,2.652Zm12.109,22.657c-2.946,0 -5.333,-2.386 -5.303,-5.303c0,-2.946 2.386,-5.333 5.303,-5.303c2.946,0 5.333,2.386 5.303,5.303c0,2.946 -2.357,5.303 -5.303,5.303Zm0,-15.91c-2.946,0 -5.333,-2.386 -5.303,-5.303c0.029,-2.917 2.386,-5.333 5.303,-5.303c2.946,0 5.333,2.386 5.303,5.303c-0.029,2.917 -2.386,5.274 -5.303,5.303Zm18.886,22.244c-2.946,0 -5.333,-2.386 -5.303,-5.303c0.029,-2.917 2.386,-5.333 5.303,-5.303c2.946,0 5.333,2.386 5.303,5.303c-0.029,2.917 -2.357,5.303 -5.303,5.303Zm0,-16.971c-2.946,0 -5.333,-2.386 -5.303,-5.303c0.029,-2.917 2.386,-5.333 5.303,-5.303c2.946,0 5.333,2.386 5.303,5.303c-0.029,2.917 -2.357,5.303 -5.303,5.303Zm113.933,-32.262c0,0 -12.522,4.567 -11.225,17.589c0.854,8.515 4.744,13.347 8.22,14.466c3.477,1.12 -15.291,9.222 -32.527,4.478c-6.482,-1.768 -12.934,-5.686 -19.681,-6.246c-7.542,-0.648 -16.175,3.329 -22.127,7.69c-2.593,-3.3 -3.064,-7.896 -2.445,-12.05c0.619,-4.154 2.239,-8.132 3.418,-12.139c2.357,-8.014 3.3,-16.322 1.237,-24.513c-1.267,-4.979 -3.182,-9.723 -4.685,-14.643c-0.412,-1.355 -2.504,-16.116 1.179,-15.085c0,0 42.662,11.608 65.054,-5.303c0,0 -0.442,5.451 0.324,8.22c0.795,2.74 2.18,6.482 6.128,8.485c3.919,2.033 7.071,4.95 7.071,4.95l0.059,24.101Z" style="fill-rule:nonzero;"/><path d="M256.092,177.349c0,1.002 -0.619,1.385 -1.414,1.414l-13.023,0c-0.766,-0 -1.385,-0.619 -1.414,-1.414l0,-28.049c0,-0.766 0.619,-1.385 1.414,-1.414l13.023,0c0.766,0 1.385,0.619 1.385,1.149l0.029,28.314" style="fill-rule:nonzero;"/><path d="M199.936,149.006c0,-0.766 0.619,-1.385 1.414,-1.414l13.023,0c0.766,0 1.385,0.619 1.414,1.414l0,28.284c0,0.766 -0.619,1.385 -1.414,1.414l-13.023,0c-0.766,0 -1.385,-0.619 -1.414,-1.414l0,-28.284Z" style="fill-rule:nonzero;"/></svg>