<svg xmlns="http://www.w3.org/2000/svg" viewBox="0 0 192 192" width="192" height="192">
  <rect width="192" height="192" rx="32" fill="#0a0806"/>
  <g transform="translate(28.8 49) scale(0.3223)" fill="#fbf5e6" style="fill-rule:nonzero;stroke-linejoin:round;stroke-miterlimit:2;">
    <path d="M88.917,183.917l13.167,0l0,-12.5l-13.167,0l0,12.5Zm-20,0l13.167,0l0,-12.5l-13.167,0l0,12.5Zm311.667,-95.833l2.75,0c0,-0 0,-0 0,-0c0,-7.474 -6.151,-13.625 -13.625,-13.625c-0.014,0 -0.028,0 -0.042,0l0,2.708l-88.958,0c-0.493,-0.837 -1.281,-1.461 -2.208,-1.75c-45.613,-15.071 -94.887,-15.071 -140.5,0c-0.811,0.358 -1.494,0.954 -1.958,1.708l-89.042,0l0,-2.708c-0.015,-0 -0.029,-0 -0.044,-0c-7.474,0 -13.625,6.151 -13.625,13.625c0,0.083 0.001,0.167 0.002,0.25l2.75,0l0,100l-2.75,0c-0.001,0.056 -0.001,0.111 -0.001,0.167c0,7.474 6.151,13.625 13.625,13.625c0.014,0 0.028,-0 0.043,-0l0,-2.708l16.667,0l0,2c0.023,1.653 1.389,3 3.042,3l5.958,0c0.691,1.085 1.88,1.758 3.167,1.792l1.833,0c0.659,2.559 3.025,4.334 5.667,4.25l1.958,0c2.572,0.035 4.861,-1.686 5.542,-4.167l1.792,0c1.301,-0.02 2.509,-0.694 3.208,-1.792l5.958,0c1.653,0 3.019,-1.347 3.042,-3l0,-2.083l207.25,0l0,2c0.023,1.653 1.389,3 3.042,3l5.958,0c0.691,1.085 1.88,1.758 3.167,1.792l1.833,0c0.681,2.481 2.969,4.202 5.542,4.167l1.958,0c2.572,0.035 4.861,-1.686 5.542,-4.167l1.792,0c1.301,-0.02 2.509,-0.694 3.208,-1.792l5.875,0c1.653,0 3.019,-1.347 3.042,-3l0,-2l16.667,0l0,2.708c7.474,0 13.625,-6.151 13.625,-13.625l-2.75,0l0,-100.375Zm-128.125,-10.708l-88.875,0c29.332,-5.883 59.543,-5.883 88.875,0Zm111.333,107.208c0,3.223 -2.652,5.875 -5.875,5.875l-299.167,0c-3.223,0 -5.875,-2.652 -5.875,-5.875l0,-85.5c0,-3.314 2.727,-6.042 6.042,-6.042l298.833,0c3.314,0 6.042,2.727 6.042,6.042l-0,85.5Zm-298.417,-24.167l285.917,0l0,-54.875l-285.917,0l0,54.875Zm90.917,-34.667l104.167,0c0.316,-0.042 0.634,-0.062 0.953,-0.062c4,0 7.292,3.292 7.292,7.292c0,4 -3.292,7.292 -7.292,7.292c-0.319,0 -0.637,-0.021 -0.953,-0.062l-104.167,0c-0.316,0.042 -0.634,0.062 -0.953,0.062c-4,0 -7.292,-3.292 -7.292,-7.292c0,-4 3.292,-7.292 7.292,-7.292c0.319,0 0.637,0.021 0.953,0.062Z"/>
  </g>
</svg>
