<svg xmlns="http://www.w3.org/2000/svg" viewBox="0 0 220 140" fill="none" stroke="currentColor" stroke-width="3" stroke-linejoin="round">
  <path d="M40 70 c0,-22 18,-38 40,-38 18,0 28,10 32,22 4,-10 14,-18 28,-18 24,0 42,18 42,42 0,24 -18,42 -42,42 -14,0 -24,-8 -28,-18 -4,12 -14,22 -32,22 -22,0 -40,-16 -40,-38 0,-6 4,-12 10,-14 -6,-2 -10,-8 -10,-14z"/>
  <line x1="58" y1="38" x2="58" y2="102"/>
  <line x1="74" y1="42" x2="74" y2="98"/>
  <line x1="90" y1="46" x2="90" y2="94"/>
  <line x1="106" y1="50" x2="106" y2="90"/>
  <line x1="122" y1="54" x2="122" y2="86"/>
  <line x1="138" y1="56" x2="138" y2="84"/>
  <circle cx="148" cy="70" r="8" fill="currentColor" opacity="0.3"/>
  <line x1="40" y1="70" x2="10" y2="70" stroke-width="2"/>
  <rect x="6" y="64" width="6" height="12" fill="currentColor" opacity="0.4"/>
</svg>
