<?xml version="1.0" encoding="UTF-8" standalone="no"?><!DOCTYPE svg PUBLIC "-//W3C//DTD SVG 1.1//EN" "http://www.w3.org/Graphics/SVG/1.1/DTD/svg11.dtd"><svg width="100%" height="100%" viewBox="0 0 625 334" version="1.1" xmlns="http://www.w3.org/2000/svg" xmlns:xlink="http://www.w3.org/1999/xlink" xml:space="preserve" xmlns:serif="http://www.serif.com/" style="fill-rule:evenodd;clip-rule:evenodd;stroke-linejoin:round;stroke-miterlimit:2;"><g><g><path d="M133.649,234.672c12.373,-4.61 20.847,-10.134 27.649,-14.577c9.845,-6.421 16.352,-10.661 27.279,-7.971c4.506,1.099 9.041,2.701 13.848,4.39c15.115,5.31 30.744,10.799 45.511,0.619c7.699,-5.298 9.59,-13.564 5.449,-23.907c-5.056,-12.645 2.377,-18.065 6.826,-21.315l0.619,-0.451l199.774,-2.343c0.012,0 0.017,-0.012 0.035,-0.012c10.684,-0.11 15.583,13.425 15.629,13.57c0.208,0.596 0.816,0.943 1.44,0.833c11.459,-2.163 20.766,-3.476 29.292,-4.142c2.337,-0.179 4.749,-0.364 7.074,-0.266c2.707,0.116 3.54,0.931 5.362,2.713c0.428,0.411 0.885,0.856 1.411,1.342c2.273,2.065 5.576,3.395 7.953,4.147c5.246,1.66 10.776,-0.081 14.091,-4.425c3.332,-4.361 3.5,-10.007 0.451,-14.744c-3.627,-5.617 -10.967,-8.092 -17.677,-9.781c-12.269,-3.089 -24.699,-6.542 -36.713,-9.88c-7.219,-2.007 -14.432,-4.003 -21.651,-5.946c-0.405,-0.11 -0.839,-0.012 -1.157,0.26l-5.993,5.102l-179.922,-2.14c-0.642,-0.405 -2.915,-2.013 -3.598,-4.87c-0.561,-2.372 0.139,-4.998 2.077,-7.855c1.874,-2.771 4.627,-5.698 7.288,-8.538c7.051,-7.502 14.328,-15.253 9.272,-23.097c-5.42,-8.41 -29.541,-2.776 -47.212,2.186c-1.417,0.393 -2.395,0.677 -2.788,0.758c-0.457,0.093 -1.197,0.341 -2.186,0.677c-5.964,2.048 -21.807,7.491 -41.208,-2.476c-2.001,-1.03 -4.113,-2.152 -6.322,-3.32c-22.854,-12.17 -57.392,-30.541 -83.029,-1.718c-25.04,28.17 -28.87,67.284 -28.87,88.57c0,6.311 0.335,11.06 0.555,13.489c1.406,15.415 7.768,27.765 17.475,33.867c8.59,5.408 19.644,5.836 31.964,1.249Zm77.661,-47.027l11.303,0c1.325,0 2.395,1.07 2.395,2.395c0,1.325 -1.07,2.395 -2.395,2.395l-11.303,0c-0.764,0 -1.423,-0.411 -1.828,-0.972l-10.591,0c-0.15,0 -0.307,0 -0.457,-0.104l-35.637,-14.149c-0.457,-0.15 -0.816,-0.659 -0.816,-1.168l0,-3.002l-6.01,0l0,-29.425l14.605,0l0,29.425l-6.056,0l0,2.14l1.018,0.405l33.601,13.333l10.082,0c0.411,-0.706 1.168,-1.273 2.088,-1.273Zm-33.295,12.326c0.405,0.052 0.764,0.197 1.116,0.197c2.956,0 5.298,-2.337 5.298,-5.241c0,-1.22 -0.457,-2.239 -1.122,-3.106c1.018,0.914 1.683,2.244 1.683,3.771c0,2.748 -2.14,5.038 -4.732,5.038c-0.821,-0 -1.585,-0.307 -2.244,-0.659Zm4.02,-5.044c0,1.735 -1.273,3.158 -2.898,3.158c-1.579,0 -2.898,-1.423 -2.898,-3.158c0,-1.782 1.325,-3.152 2.898,-3.152c1.625,0 2.898,1.371 2.898,3.152Zm-18.834,4.437c0,-1.174 -0.457,-2.244 -1.122,-3.106c1.018,0.914 1.683,2.244 1.683,3.766c0,2.794 -2.14,5.038 -4.737,5.038c-0.816,0 -1.527,-0.26 -2.186,-0.665c0.359,0.11 0.711,0.26 1.116,0.26c2.904,-0 5.246,-2.395 5.246,-5.293Zm-5.246,3.152c-1.631,0 -2.898,-1.429 -2.898,-3.158c0,-1.735 1.273,-3.158 2.898,-3.158c1.579,0 2.904,1.423 2.904,3.158c0,1.73 -1.325,3.158 -2.904,3.158Zm75.347,2.852c-0.15,-0.972 -0.659,-1.782 -1.273,-2.395c0.862,0.613 1.573,1.625 1.782,2.852c0.457,2.291 -0.764,4.431 -2.649,4.784c-0.607,0.104 -1.168,0 -1.73,-0.202c0.255,0 0.561,0.052 0.862,0c2.14,-0.411 3.465,-2.649 3.008,-5.038Zm-3.361,3.309c-1.168,0.202 -2.343,-0.769 -2.597,-2.192c-0.307,-1.423 0.457,-2.753 1.631,-2.956c1.168,-0.255 2.343,0.717 2.597,2.14c0.301,1.429 -0.463,2.805 -1.631,3.008Zm-36.146,-31.311l-15.884,0l0,-37.72l15.884,0l0,37.72Zm265.536,-10.788l-208.572,2.441l-3.974,0.052l0,-21.182l16.497,0.202l196.043,2.337l0,16.15l0.006,0Zm28.939,-15.647c12.031,3.338 24.468,6.797 36.771,9.891c6.224,1.568 13.009,3.829 16.156,8.694c2.927,4.541 1.753,9.081 -0.335,11.823c-2.655,3.482 -7.092,4.87 -11.303,3.534c-2.129,-0.677 -5.073,-1.839 -6.999,-3.598c-0.503,-0.463 -0.949,-0.891 -1.348,-1.29c-1.944,-1.897 -3.355,-3.268 -7.034,-3.43c-2.476,-0.116 -5.084,0.093 -7.381,0.272c-8.364,0.648 -17.451,1.92 -28.534,3.98c-1.394,-3.314 -6.507,-13.362 -16.387,-14.102l0,-16.948l5.408,-4.604c6.999,1.891 13.987,3.835 20.986,5.779Zm-385.232,80.327c-9.024,-5.674 -14.958,-17.318 -16.289,-31.935c-0.954,-10.481 -4.078,-64.415 27.684,-100.139c24.3,-27.337 56.449,-10.227 79.928,2.267c2.221,1.18 4.344,2.308 6.357,3.349c20.361,10.458 36.95,4.755 43.198,2.609c0.845,-0.295 1.469,-0.509 1.857,-0.59c0.422,-0.093 1.469,-0.376 2.985,-0.804c26.111,-7.34 41.046,-8.428 44.383,-3.251c3.98,6.166 -2.32,12.876 -8.989,19.973c-2.73,2.904 -5.553,5.906 -7.543,8.844c-2.366,3.494 -3.193,6.837 -2.441,9.909c0.428,1.764 1.301,3.152 2.21,4.205l-12.581,-0.145c-0.503,-3.054 -1.371,-12.02 4.633,-18.024c7.329,-7.335 8.046,-13.697 -2.499,-13.385c-8.503,0.307 -17.411,3.615 -25.451,5.958c-10.996,3.205 -21.888,6.721 -32.682,10.585c-5.397,1.932 -9.926,4.385 -15.78,4.477c-3.974,0.052 -7.942,0.098 -11.962,0.405c-4.327,0.359 -15.172,0.862 -18.579,5.495l-6.768,0c-0.717,0 -1.273,0.561 -1.273,1.278l0,31.97c0,0.711 0.561,1.273 1.273,1.273l5.547,0c0.052,1.07 0.104,1.984 0.15,2.753c0.104,1.672 0.15,2.643 0.15,2.643c0,0 -0.307,5.397 -6.669,9.214c-6.363,3.818 -28.511,23.473 -24.792,32.786c2.748,7.028 14.762,-0.567 18.325,-2.701c6.363,-3.818 12.778,-8.804 19.649,-12.321c6.721,-3.361 13.848,-5.241 21.79,-3.1c12.066,3.251 23.774,10.233 36.447,10.637c11.303,0.307 26.932,-7.427 17.665,-20.517c-4.94,-7.022 0,-18.221 5.038,-23.363l8.52,-0.104c-4.558,3.673 -10.458,10.308 -5.512,22.669c3.69,9.22 2.175,16.242 -4.529,20.853c-13.703,9.457 -28.708,4.182 -43.226,-0.92c-4.651,-1.637 -9.452,-3.326 -14.079,-4.466c-12.003,-2.944 -19.245,1.782 -29.28,8.318c-6.698,4.367 -15.039,9.804 -27.152,14.322c-11.708,4.361 -21.709,4.014 -29.714,-1.03Z" style="fill-rule:nonzero;"/><path d="M183.77,146.871c0,0.966 0.711,1.73 1.683,1.73c0.914,0 1.677,-0.764 1.677,-1.73c0,-0.914 -0.764,-1.683 -1.677,-1.683c-0.978,-0 -1.683,0.769 -1.683,1.683Z" style="fill-rule:nonzero;"/><path d="M183.77,151.452c0,0.914 0.711,1.677 1.683,1.677c0.914,0 1.677,-0.764 1.677,-1.677c0,-0.92 -0.764,-1.677 -1.677,-1.677c-0.978,-0 -1.683,0.758 -1.683,1.677Z" style="fill-rule:nonzero;"/><path d="M183.77,156.092c0,0.908 0.711,1.677 1.683,1.677c0.914,0 1.677,-0.769 1.677,-1.677c0,-0.972 -0.764,-1.683 -1.677,-1.683c-0.978,0 -1.683,0.711 -1.683,1.683Z" style="fill-rule:nonzero;"/><path d="M183.77,160.921c0,0.92 0.711,1.677 1.683,1.677c0.914,0 1.677,-0.758 1.677,-1.677c0,-0.914 -0.764,-1.677 -1.677,-1.677c-0.978,0 -1.683,0.764 -1.683,1.677Z" style="fill-rule:nonzero;"/><path d="M183.77,165.503c0,0.914 0.711,1.683 1.683,1.683c0.914,0 1.677,-0.769 1.677,-1.683c0,-0.914 -0.764,-1.677 -1.677,-1.677c-0.978,0 -1.683,0.764 -1.683,1.677Z" style="fill-rule:nonzero;"/><path d="M183.77,170.136c0,0.914 0.711,1.683 1.683,1.683c0.914,0 1.677,-0.769 1.677,-1.683c0,-0.966 -0.764,-1.73 -1.677,-1.73c-0.978,0 -1.683,0.764 -1.683,1.73Z" style="fill-rule:nonzero;"/></g></g></svg>