<?xml version="1.0" encoding="UTF-8" standalone="no"?><!DOCTYPE svg PUBLIC "-//W3C//DTD SVG 1.1//EN" "http://www.w3.org/Graphics/SVG/1.1/DTD/svg11.dtd"><svg width="100%" height="100%" viewBox="0 0 2605 1392" version="1.1" xmlns="http://www.w3.org/2000/svg" xmlns:xlink="http://www.w3.org/1999/xlink" xml:space="preserve" xmlns:serif="http://www.serif.com/" style="fill-rule:evenodd;clip-rule:evenodd;"><g><g><path d="M2140.673,682.019c6.787,1.749 13.269,3.428 19.366,5.028c70.072,18.376 36.753,112.138 -15.308,107.63c-34.929,-3.024 -63.126,-45.619 -63.126,-45.619c0,0 -76.089,41.491 -152.659,40.881c2.174,-65.659 -56.024,-63.645 -56.024,-63.645c0,0 -791.675,6.757 -839.043,10.005c-34.464,60.277 -1.199,136.856 60.717,131.414c47.503,-4.178 63.88,67.948 -50.611,76.639c-80.887,6.142 -127.97,-62.456 -201.171,-44.079c-73.201,18.376 -114.382,66.309 -221.052,84.8c-191.565,33.214 -234.445,-136.791 -224.79,-302.229c4.483,-76.859 8.296,-309.675 211.806,-297.446c121.603,7.307 224.655,91.422 295.722,88.938c91.117,-3.184 167.632,-78.448 275.536,-46.333c95.78,28.502 79.828,90.488 16.202,81.752c-99.723,-13.694 -117.13,120.499 -64.455,125.416l738.145,15.473l23.769,-29.511c0,0 11.53,2.764 30.201,7.277l1.439,-8.086c-8.151,-2.769 -10.665,-9.745 -9.366,-15.388c1.449,-6.307 7.352,-12.654 17.317,-10.88c9.97,1.774 15.688,9.77 14.488,16.537c-0.905,5.088 -5.348,9.551 -12.024,10.645l-1.709,9.626c9.061,2.194 19.316,4.683 30.411,7.382l1.524,-8.576c-8.151,-2.769 -10.665,-9.745 -9.366,-15.388c1.449,-6.307 7.352,-12.654 17.317,-10.88c9.97,1.774 15.688,9.77 14.488,16.537c-0.905,5.088 -5.348,9.551 -12.024,10.645l-1.799,10.13c10.31,2.514 21.205,5.173 32.43,7.926l1.649,-9.266c-8.151,-2.769 -10.665,-9.745 -9.366,-15.388c1.449,-6.307 7.352,-12.654 17.317,-10.88c9.97,1.774 15.688,9.77 14.488,16.537c-0.905,5.088 -5.348,9.551 -12.024,10.645l-1.929,10.835c9.99,2.454 20.176,4.963 30.396,7.487l1.759,-9.895c-8.151,-2.769 -10.665,-9.745 -9.366,-15.388c1.449,-6.307 7.352,-12.654 17.317,-10.88c9.97,1.774 15.688,9.77 14.488,16.537c-0.905,5.088 -5.348,9.551 -12.024,10.645l-2.044,11.495c10.9,2.704 21.765,5.407 32.405,8.071l1.549,-8.726c-8.151,-2.769 -10.665,-9.745 -9.366,-15.388c1.449,-6.307 7.352,-12.654 17.317,-10.88c9.97,1.774 15.688,9.77 14.488,16.537c-0.905,5.088 -5.348,9.551 -12.024,10.645l-1.839,10.35c10.485,2.639 20.675,5.218 30.356,7.691l1.709,-9.616c-8.151,-2.769 -10.665,-9.745 -9.366,-15.388c1.449,-6.307 7.352,-12.654 17.317,-10.88c9.97,1.774 15.688,9.77 14.488,16.537c-0.905,5.088 -5.348,9.551 -12.024,10.645l-2.009,11.295l-0.015,0Z" style="fill:none;stroke:#000;stroke-width:5.2px;"/><path d="M659.865,752.831l0,0.65l-1.509,50.946c0,0 -10.565,44.349 -44.504,78.193c-14.408,14.373 -38.772,44.724 -32.28,62.326c10.56,28.647 61.991,10.355 99.424,-3.179c65.055,-23.524 95.046,-43.874 132.268,-57.618c77.704,-28.687 121.783,9.815 192.55,30.956c70.767,21.14 129.999,-19.981 90.743,-19.746c-44.509,0.265 -148.276,-48.802 -81.597,-165.433l19.556,-52.156c0.33,2.599 0.61,4.188 0.61,4.188c0,0 4.803,53.925 -1.244,54.34c-34.464,60.277 -1.199,136.856 60.717,131.414c47.503,-4.178 63.88,67.948 -50.611,76.639c-80.887,6.142 -127.97,-62.456 -201.171,-44.079c-73.201,18.376 -114.382,66.309 -221.052,84.8c-191.565,33.214 -234.445,-136.791 -224.79,-302.229c4.483,-76.859 8.296,-309.675 211.806,-297.446c121.603,7.307 224.655,91.422 295.722,88.938c91.117,-3.184 167.632,-78.448 275.536,-46.333c95.78,28.502 79.828,90.488 16.202,81.752c-99.723,-13.694 -117.13,120.499 -64.455,125.416c0,0 -66.314,1.005 -80.642,-1.099c5.163,-8.416 39.631,-67.279 -17.707,-49.242c-50.831,15.988 -119.009,17.257 -180.306,-10.42c-148.041,-66.839 -191.461,-18.791 -192.99,37.368c-0.005,0.145 -0.01,0.3 -0.02,0.465l-55.459,0.89c-5.732,0.09 -10.135,4.893 -10.04,10.725l1.299,81.157c-0.105,0.625 -0.15,1.264 -0.14,1.919l0.915,56.983c0.095,5.877 4.833,10.45 10.585,10.355l26.103,-0.42c5.742,-0.09 10.34,-4.878 10.245,-10.69l-0.16,-10.08l16.402,-0.265l-0.005,0.015Zm-94.876,48.412c-59.737,48.497 -72.906,104.246 -62.106,113.337c10.8,9.086 54.035,-9.036 102.932,-78.983c3.483,-4.983 9.061,-23.494 -6.017,-36.183c-15.078,-12.689 -31.52,-0.84 -34.804,1.829l-0.005,0Z"/><path d="M763.032,630.224l-20.046,112.762c-1.509,8.486 -9.626,14.153 -18.112,12.644c-8.486,-1.509 -14.153,-9.626 -12.644,-18.112l20.046,-112.762c1.509,-8.486 9.626,-14.153 18.112,-12.644c8.486,1.509 14.153,9.626 12.644,18.112Z"/><path d="M857.008,627.355l1.839,114.516c0.14,8.621 -6.747,15.728 -15.363,15.868c-8.621,0.14 -15.728,-6.747 -15.868,-15.363l-1.839,-114.516c-0.14,-8.621 6.747,-15.728 15.363,-15.868c8.621,-0.14 15.728,6.747 15.868,15.363Z"/><path d="M967.881,626.101l1.839,114.516c0.14,8.621 -6.747,15.728 -15.363,15.868c-8.621,0.14 -15.728,-6.747 -15.868,-15.363l-1.839,-114.516c-0.14,-8.621 6.747,-15.728 15.363,-15.868c8.621,-0.14 15.728,6.747 15.868,15.363Z"/><path d="M1024.589,632.028l17.577,0.385l1.774,102.152l-17.567,0.205l-1.784,-102.742Zm-3.858,-0.085l1.789,102.867l-30.636,0.355c0,0 -3.343,-13.134 -3.463,-47.143c-0.12,-34.009 3.104,-56.718 3.104,-56.718l29.206,0.635l0,0.005Zm25.298,0.55l16.822,0.365l1.764,101.463l-16.812,0.195l-1.774,-102.022Zm20.68,0.45l17.107,0.375l1.614,100.763l-16.962,0.195l-1.764,-101.333l0.005,0Zm20.97,0.455l18.541,0.405l1.604,100.018l-18.531,0.215l-1.614,-100.633l0,-0.005Zm22.405,0.49l20.545,0.45l1.589,99.204l-20.535,0.24l-1.604,-99.888l0.005,-0.005Zm24.409,0.53l21.265,0.465l1.579,98.364l-21.255,0.245l-1.589,-99.074Zm25.128,0.545l23.634,0.515l1.564,97.444l-23.619,0.275l-1.574,-98.234l-0.005,0Zm27.492,0.6l25.033,0.545l1.549,96.48l-25.018,0.29l-1.559,-97.315l-0.005,0Zm28.891,0.63l26.718,0.58l1.529,95.46l-26.703,0.31l-1.544,-96.35Zm30.581,0.665l27.267,0.595l1.514,94.421l-27.252,0.315l-1.529,-95.33Zm31.13,0.68l31.76,0.69l1.494,93.231l-31.745,0.37l-1.514,-94.291l0.005,-0Zm35.623,0.775l31.875,0.695l1.474,92.037l-31.855,0.37l-1.494,-93.101Zm35.733,0.78l33.559,0.73l1.454,90.788l-33.539,0.39l-1.474,-91.907Zm37.418,0.815l35.828,0.78l1.434,89.463l-35.808,0.415l-1.454,-90.658Zm39.686,0.865l39.182,0.855l1.414,88.029l-39.162,0.455l-1.434,-89.333l0,-0.005Zm43.045,0.94l41.721,0.91l1.389,86.505l-41.696,0.485l-1.409,-87.899l-0.005,0Zm45.579,0.995l45.159,0.985l1.359,84.87l-45.134,0.525l-1.384,-86.375l0,-0.005Zm49.022,1.07l46.633,1.015l1.334,83.181l-46.608,0.54l-1.359,-84.74l0,0.005Zm50.491,1.099l50.157,1.094l1.304,81.377l-50.132,0.585l-1.334,-83.056l0.005,0Zm54.02,1.174l53.71,1.169l1.274,79.458l-53.68,0.625l-1.304,-81.252Zm57.568,1.254l54.904,1.194l1.244,77.494l-54.874,0.64l-1.274,-79.328Zm58.763,1.279l69.168,1.504l-2.314,75.1l-65.609,0.76l-1.239,-77.369l-0.005,0.005Zm74.325,1.619l11.994,0.26l-1.119,74.51l-12.319,0.145l1.444,-74.915Zm-714.946,40.111c2.829,0.505 5.532,-1.384 6.037,-4.213c0.505,-2.829 -1.384,-5.532 -4.213,-6.037c-2.829,-0.505 -5.532,1.384 -6.037,4.213c-0.505,2.829 1.384,5.532 4.213,6.037Zm-47.828,-0.52c2.829,0.505 5.532,-1.384 6.037,-4.213c0.505,-2.829 -1.384,-5.532 -4.213,-6.037c-2.829,-0.505 -5.532,1.384 -6.037,4.213c-0.505,2.829 1.384,5.532 4.213,6.037Zm-42.455,-0.395c2.829,0.505 5.532,-1.384 6.037,-4.213c0.505,-2.829 -1.384,-5.532 -4.213,-6.037c-2.829,-0.505 -5.532,1.384 -6.037,4.213c-0.505,2.829 1.384,5.532 4.213,6.037Zm149.07,0.145c2.204,-1.844 2.499,-5.128 0.65,-7.332c-1.844,-2.204 -5.128,-2.499 -7.332,-0.65c-2.204,1.844 -2.499,5.128 -0.65,7.332c1.844,2.204 5.128,2.499 7.332,0.65Zm90.823,-18.746c2.829,0.505 5.532,-1.384 6.037,-4.213c0.505,-2.829 -1.384,-5.532 -4.213,-6.037c-2.829,-0.505 -5.532,1.384 -6.037,4.213c-0.505,2.829 1.384,5.532 4.213,6.037Zm0.285,41.411c2.829,0.505 5.532,-1.384 6.037,-4.213c0.505,-2.829 -1.384,-5.532 -4.213,-6.037c-2.829,-0.505 -5.532,1.384 -6.037,4.213c-0.505,2.829 1.384,5.532 4.213,6.037Zm401.138,-21.155c2.829,0.505 5.532,-1.384 6.037,-4.213c0.505,-2.829 -1.384,-5.532 -4.213,-6.037c-2.829,-0.505 -5.532,1.384 -6.037,4.213c-0.505,2.829 1.384,5.532 4.213,6.037Zm-107.365,-1.079c2.829,0.505 5.532,-1.384 6.037,-4.213c0.505,-2.829 -1.384,-5.532 -4.213,-6.037c-2.829,-0.505 -5.532,1.384 -6.037,4.213c-0.505,2.829 1.384,5.532 4.213,6.037Zm-97.654,-0.015c2.829,0.505 5.532,-1.384 6.037,-4.213c0.505,-2.829 -1.384,-5.532 -4.213,-6.037c-2.829,-0.505 -5.532,1.384 -6.037,4.213c-0.505,2.829 1.384,5.532 4.213,6.037Zm-84.83,-0.635c2.829,0.505 5.532,-1.384 6.037,-4.213c0.505,-2.829 -1.384,-5.532 -4.213,-6.037c-2.829,-0.505 -5.532,1.384 -6.037,4.213c-0.505,2.829 1.384,5.532 4.213,6.037Z"/><path d="M644.342,752.412l24.728,0.775c5.732,-0.09 10.135,-4.893 10.04,-10.725l-1.469,-120.584c-0.095,-5.887 -4.743,-10.49 -10.38,-10.4l-62.861,1.01c-5.732,0.09 -10.135,4.893 -10.04,10.725l1.559,81.812c-0.105,0.625 -0.15,1.264 -0.14,1.919l0.915,56.983c0.095,5.877 4.833,10.45 10.585,10.355l28.407,-1.374c5.742,-0.09 8.926,-4.808 8.831,-10.62l-0.17,-9.88l-0.005,0.005Z" style="fill:none;stroke:#000;stroke-width:2.1px;"/><path d="M564.989,801.249c3.283,-2.669 19.726,-14.518 34.804,-1.829c15.078,12.689 9.501,31.2 6.017,36.183c-48.892,69.947 -92.132,88.069 -102.932,78.983c-10.8,-9.086 2.374,-64.84 62.106,-113.337l0.005,0Zm18.162,49.487l-30.921,-26.018c-38.752,38.067 -49.407,75.53 -42.465,81.377c7.012,5.902 36.383,-7.966 73.381,-55.359l0.005,-0Z" style="fill:none;stroke:#000;stroke-width:2.1px;"/><path d="M631.653,896.314c14.143,2.514 23.584,16.038 21.07,30.186c-2.514,14.143 -16.038,23.584 -30.186,21.07c-14.143,-2.514 -23.584,-16.038 -21.07,-30.186c2.514,-14.143 16.038,-23.584 30.186,-21.07Z"/><path d="M683.184,832.929c14.143,2.514 23.584,16.038 21.07,30.186c-2.514,14.143 -16.038,23.584 -30.186,21.07c-14.143,-2.514 -23.584,-16.038 -21.07,-30.186c2.514,-14.143 16.038,-23.584 30.186,-21.07Z"/><path d="M722.286,767.419c14.143,2.514 23.584,16.038 21.07,30.186c-2.514,14.143 -16.038,23.584 -30.186,21.07c-14.143,-2.514 -23.584,-16.038 -21.07,-30.186c2.514,-14.143 16.038,-23.584 30.186,-21.07Z"/><path d="M751.447,873.17l-12.224,10.655l2.694,2.599l11.934,-10.55c0.9,0.63 1.954,1.079 3.109,1.284c4.248,0.755 8.301,-2.074 9.056,-6.322c0.315,-1.784 0,-3.533 -0.785,-5.023l22.469,-19.856l-1.979,-2.664l-22.789,19.866c-0.93,-0.68 -2.024,-1.159 -3.233,-1.379c-4.248,-0.755 -8.301,2.074 -9.056,6.322c-0.32,1.799 0.005,3.568 0.81,5.063l-0.005,0.005Z"/><path d="M1938.143,653.263c-1.005,5.657 -6.417,9.436 -12.074,8.426c-5.657,-1.005 -9.436,-6.417 -8.426,-12.074c1.005,-5.657 6.417,-9.436 12.074,-8.426c5.657,1.005 9.436,6.417 8.426,12.074Z"/><path d="M1979.063,663.128c-1.005,5.657 -6.417,9.436 -12.074,8.426c-5.657,-1.005 -9.436,-6.417 -8.426,-12.074c1.005,-5.657 6.417,-9.436 12.074,-8.426c5.657,1.005 9.436,6.417 8.426,12.074Z"/><path d="M2021.174,672.609c-1.005,5.657 -6.417,9.436 -12.074,8.426c-5.657,-1.005 -9.436,-6.417 -8.426,-12.074c1.005,-5.657 6.417,-9.436 12.074,-8.426c5.657,1.005 9.436,6.417 8.426,12.074Z"/><path d="M2061.545,682.149c-1.005,5.657 -6.417,9.436 -12.074,8.426c-5.657,-1.005 -9.436,-6.417 -8.426,-12.074c1.005,-5.657 6.417,-9.436 12.074,-8.426c5.657,1.005 9.436,6.417 8.426,12.074Z"/><path d="M2104.815,690.7c-1.005,5.657 -6.417,9.436 -12.074,8.426c-5.657,-1.005 -9.436,-6.417 -8.426,-12.074c1.005,-5.657 6.417,-9.436 12.074,-8.426c5.657,1.005 9.436,6.417 8.426,12.074Z"/><path d="M2145.99,700.171c-1.005,5.657 -6.417,9.436 -12.074,8.426c-5.657,-1.005 -9.436,-6.417 -8.426,-12.074c1.005,-5.657 6.417,-9.436 12.074,-8.426c5.657,1.005 9.436,6.417 8.426,12.074Z"/></g></g></svg>