<?xml version="1.0" encoding="UTF-8" standalone="no"?><!DOCTYPE svg PUBLIC "-//W3C//DTD SVG 1.1//EN" "http://www.w3.org/Graphics/SVG/1.1/DTD/svg11.dtd"><svg width="100%" height="100%" viewBox="0 0 625 334" version="1.1" xmlns="http://www.w3.org/2000/svg" xmlns:xlink="http://www.w3.org/1999/xlink" xml:space="preserve" xmlns:serif="http://www.serif.com/" style="fill-rule:evenodd;clip-rule:evenodd;stroke-linejoin:round;stroke-miterlimit:2;"><g><path d="M365.568,186.009l-10.495,0.136l0.159,-23.582l10.462,0.168l-0.127,23.279Zm-11.437,-23.464l-9.846,-0.159l-0.094,23.9l9.782,-0.124l0.159,-23.617Zm-10.948,-0.177l-9.184,-0.144l-0.094,24.195l9.186,-0.118l0.091,-23.933Zm47.668,0.763l-11.862,-0.189l-0.091,22.89l11.868,-0.159l0.085,-22.542Zm-12.967,-0.209l-11.09,-0.177l-0.124,23.246l11.128,-0.144l0.085,-22.925Zm-72.443,-1.155l-6.962,-0.109l-0.194,25.226l7.021,-0.085l0.136,-25.032Zm-8.061,-0.13l-6.715,-0.109l-0.136,25.456l6.656,-0.085l0.194,-25.261Zm121.89,1.947l-13.473,-0.215l-0.085,22.112l13.476,-0.177l0.082,-21.72Zm-86.373,-1.379l-8.597,-0.136l-0.091,24.481l8.594,-0.115l0.094,-24.23Zm-9.702,-0.156l-8.138,-0.13l-0.162,24.752l8.205,-0.109l0.094,-24.513Zm-9.242,-0.15l-7.407,-0.118l-0.133,24.993l7.377,-0.094l0.162,-24.781Zm90.739,1.45l-12.737,-0.203l-0.082,22.515l12.737,-0.168l0.082,-22.144Zm-158.18,-2.221c-1.532,0.153 -2.755,1.399 -2.749,2.985l0.035,20.194c0.003,0.846 0.345,1.606 0.896,2.157c0.433,0.433 1.016,0.675 1.641,0.787l0.177,-26.122Zm22.427,0.259l-4.944,-0.071l-0.18,25.83l4.988,-0.062l0.136,-25.697Zm6.438,0.091l-5.333,-0.077l-0.138,25.671l5.333,-0.065l0.138,-25.53Zm6.773,0.103l-5.672,-0.085l-0.136,25.497l5.672,-0.068l0.136,-25.344Zm7.413,-0.071l-2.546,-0.041c-1.7,0.091 -2.666,0.138 -2.719,0.138l-1.04,-0.015l-0.136,25.314l5.465,-0.062c0.044,-0.003 0.386,0.027 0.84,0.074l0.136,-25.409Zm-32.468,-0.295l-4.408,-0.065l-0.183,26.133l4.455,-0.053l0.136,-26.016Zm194.198,2.884l-15.368,-0.242l-0.082,21.237l15.453,-0.203l-0.003,-20.792Zm-188.4,-2.802l-4.693,-0.068l-0.141,25.986l4.652,-0.056l0.183,-25.862Zm206.231,3.085l-16.726,-0.268l0.003,20.757l16.797,-0.221l-0.074,-20.267Zm-217.541,-3.247l-3.969,-0.056l-0.18,26.266l3.969,-0.05l0.18,-26.16Zm183.238,2.702l-14.449,-0.23l-0.085,21.688l14.449,-0.189l0.085,-21.269Zm-303.52,50.658c-1.777,-1.777 -4.658,-1.777 -6.435,0c-1.777,1.777 -1.777,4.658 0,6.435c1.777,1.777 4.658,1.777 6.435,0c1.777,-1.777 1.777,-4.658 0,-6.435Zm30.273,-0.345c-1.777,-1.777 -4.658,-1.777 -6.435,0c-1.78,1.78 -1.777,4.658 0,6.435c1.777,1.777 4.655,1.78 6.435,0c1.777,-1.777 1.777,-4.658 0,-6.435Zm22.969,3.058c-0.003,-0.303 -0.256,-0.551 -0.563,-0.545l-3.067,0.038c-0.121,-0.504 -0.33,-0.99 -0.719,-1.379c-1.131,-1.131 -2.964,-1.131 -4.092,-0.003c-0.41,0.41 -0.619,0.919 -0.728,1.447l-2.307,0.027c-0.303,0.003 -0.545,0.25 -0.545,0.557c0.003,0.15 0.065,0.283 0.165,0.383c0.103,0.103 0.239,0.162 0.395,0.159l2.272,-0.027c0.103,0.563 0.312,1.114 0.748,1.55c1.131,1.131 2.967,1.128 4.095,0c0.454,-0.454 0.672,-1.025 0.76,-1.615l3.041,-0.035c0.303,-0.003 0.545,-0.25 0.545,-0.557Zm-8.801,-25.671l-0.843,-0.265c-2.316,-0.725 -3.609,-3.22 -2.887,-5.533l8.085,-25.739c0.725,-2.316 3.214,-3.615 5.533,-2.887l0.843,0.265c2.319,0.728 3.609,3.22 2.887,5.533l-8.085,25.745c-0.728,2.313 -3.217,3.612 -5.533,2.881Zm7.911,-28.381c0.566,0.583 1.5,0.592 2.08,0.024c0.58,-0.575 0.586,-1.506 0.018,-2.086c-0.566,-0.583 -1.494,-0.592 -2.074,-0.018c-0.577,0.566 -0.589,1.497 -0.024,2.08Zm-1.594,5.006c0.569,0.58 1.5,0.586 2.08,0.018c0.58,-0.569 0.589,-1.497 0.021,-2.077c-0.569,-0.58 -1.497,-0.589 -2.083,-0.021c-0.577,0.566 -0.586,1.5 -0.018,2.08Zm-1.594,5c0.569,0.58 1.497,0.589 2.08,0.024c0.58,-0.569 0.583,-1.503 0.012,-2.08c-0.569,-0.58 -1.494,-0.592 -2.08,-0.018c-0.575,0.569 -0.586,1.5 -0.012,2.074Zm0.477,5.038c0.58,-0.569 0.589,-1.497 0.024,-2.08c-0.572,-0.577 -1.503,-0.589 -2.086,-0.018c-0.583,0.572 -0.586,1.5 -0.015,2.077c0.572,0.577 1.5,0.586 2.077,0.021Zm-3.668,4.976c0.569,0.58 1.494,0.592 2.077,0.027c0.58,-0.575 0.586,-1.506 0.018,-2.086c-0.569,-0.58 -1.5,-0.586 -2.083,-0.015c-0.572,0.566 -0.577,1.497 -0.012,2.074Zm0.477,5.032c0.58,-0.575 0.592,-1.5 0.027,-2.083c-0.569,-0.58 -1.506,-0.586 -2.086,-0.018c-0.58,0.569 -0.583,1.503 -0.012,2.08c0.566,0.577 1.497,0.589 2.071,0.021Zm366.962,7.528c0,0 -5,0.846 -10.919,-4.808c0,0 -2.077,-1.818 -7.086,0.457c-5.003,2.275 -16.222,5.804 -27.627,-1.016c0,0 -13.7,-5.999 -24.077,-5.751l-3.6,0.012l-0.074,-20.22c0.274,-0.032 4.01,-0.557 6.499,-4.36c2.581,-3.948 5.996,-2.584 5.996,-2.584l1.75,0.583l5.324,1.588c-0.003,-0.009 -0.024,-0.018 -0.024,-0.029c0,0 -0.032,-0.969 0.946,-1.847l-2.045,-1.626c-0.192,-0.15 -0.277,-0.46 -0.189,-0.684l1.049,-2.781c0.088,-0.224 0.348,-0.466 0.586,-0.521c0,0 5.227,-1.355 7.616,2.985l-0.713,2.646c-0.068,0.233 -0.312,0.436 -0.554,0.454l-2.778,0.186c-0.245,0.015 -0.33,0.194 -0.2,0.401c0,0 0.206,0.43 -0.18,1.871l7.849,2.339c-0.012,-0.041 -0.074,-0.056 -0.074,-0.097c0,0 -0.035,-0.972 0.943,-1.85l-2.045,-1.626c-0.192,-0.15 -0.274,-0.463 -0.186,-0.686l1.049,-2.781c0.088,-0.224 0.345,-0.463 0.586,-0.521c0,0 5.227,-1.355 7.616,2.985l-0.71,2.643c-0.068,0.233 -0.315,0.439 -0.557,0.457l-2.775,0.183c-0.242,0.018 -0.327,0.197 -0.2,0.401c0,0 0.215,0.439 -0.189,1.927l7.928,2.36c-0.021,-0.056 -0.097,-0.074 -0.097,-0.127c0,0 -0.032,-0.975 0.943,-1.85l-2.042,-1.623c-0.192,-0.156 -0.277,-0.466 -0.189,-0.689l1.049,-2.781c0.088,-0.224 0.348,-0.466 0.586,-0.521c0,0 5.227,-1.355 7.616,2.985l-0.713,2.646c-0.065,0.236 -0.315,0.439 -0.557,0.457l-2.775,0.183c-0.242,0.018 -0.327,0.197 -0.2,0.401c0,0 0.218,0.442 -0.194,1.945l7.79,2.322c0,-0.106 0.021,-0.981 0.94,-1.806l-2.042,-1.623c-0.194,-0.153 -0.274,-0.463 -0.189,-0.689l1.049,-2.781c0.088,-0.224 0.345,-0.463 0.586,-0.521c0,0 5.227,-1.355 7.616,2.985l-0.71,2.643c-0.065,0.236 -0.315,0.439 -0.557,0.457l-2.775,0.183c-0.242,0.018 -0.327,0.197 -0.2,0.401c0,0 0.2,0.424 -0.159,1.815l7.902,2.357c0.009,-0.203 0.085,-0.999 0.934,-1.765l-2.057,-1.632c-0.192,-0.156 -0.274,-0.463 -0.189,-0.689l1.049,-2.781c0.088,-0.224 0.348,-0.466 0.586,-0.521c0,0 5.23,-1.352 7.616,2.985l-0.713,2.646c-0.065,0.236 -0.315,0.439 -0.557,0.457l-2.775,0.183c-0.242,0.018 -0.327,0.197 -0.2,0.401c0,0 0.194,0.418 -0.153,1.774l7.973,2.375c-0.006,-0.018 -0.029,-0.024 -0.032,-0.038c0,0 -0.035,-0.972 0.943,-1.85l-2.042,-1.623c-0.194,-0.153 -0.277,-0.46 -0.192,-0.686l1.052,-2.778c0.085,-0.227 0.345,-0.468 0.583,-0.524c0,0 5.23,-1.352 7.619,2.988l-0.716,2.643c-0.065,0.236 -0.312,0.436 -0.554,0.454l-2.778,0.186c-0.242,0.018 -0.327,0.197 -0.2,0.401c0,0 0.23,0.448 -0.209,2.001c1.553,0.875 5.928,3.966 4.254,10.495c-2.018,7.858 -10.857,7.463 -10.857,7.463Zm-51.477,-28.355c1.252,-1.252 1.255,-3.282 0,-4.537c-1.252,-1.252 -3.282,-1.249 -4.534,0.003c-1.252,1.252 -1.252,3.279 0,4.531c1.258,1.258 3.285,1.252 4.534,0.003Zm11.325,3.429c1.252,-1.252 1.249,-3.282 -0.003,-4.534c-1.252,-1.252 -3.282,-1.255 -4.534,-0.003c-1.252,1.252 -1.252,3.285 0,4.537c1.252,1.252 3.282,1.255 4.537,0Zm11.323,3.432c1.252,-1.252 1.252,-3.279 -0.003,-4.534c-1.252,-1.252 -3.279,-1.252 -4.531,0c-1.252,1.252 -1.255,3.282 -0.003,4.534c1.255,1.255 3.285,1.252 4.537,0Zm11.32,3.435c1.252,-1.252 1.252,-3.285 0,-4.537c-1.252,-1.252 -3.282,-1.255 -4.537,0c-1.252,1.252 -1.249,3.282 0.003,4.534c1.252,1.252 3.282,1.255 4.534,0.003Zm11.323,3.432c1.252,-1.252 1.252,-3.279 -0.003,-4.534c-1.252,-1.252 -3.279,-1.252 -4.531,0c-1.252,1.252 -1.255,3.282 -0.003,4.534c1.258,1.252 3.285,1.252 4.537,0Zm11.323,3.432c1.252,-1.252 1.252,-3.285 0,-4.537c-1.252,-1.252 -3.285,-1.252 -4.537,0c-1.252,1.252 -1.249,3.282 0.003,4.534c1.252,1.252 3.282,1.255 4.534,0.003Zm-310.579,-22.539c0.006,-1.697 -1.382,-3.091 -3.073,-3.097c-1.691,0 -3.079,1.388 -3.088,3.088l-0.027,24.652c-0.003,1.7 1.382,3.091 3.073,3.097c1.694,0.003 3.082,-1.385 3.085,-3.085l0.029,-24.654Zm-79.597,-1.762l-3.889,-0.071c-0.144,-0.003 -0.283,-0.065 -0.38,-0.162c-0.103,-0.103 -0.162,-0.245 -0.162,-0.398c0.006,-0.306 0.259,-0.548 0.563,-0.545l3.883,0.071l0.015,-1.193c0.006,-0.483 -0.386,-0.887 -0.869,-0.893l-6.27,-0.071c-0.486,-0.003 -0.887,0.386 -0.896,0.872l-0.041,3.518c-0.009,0.486 0.383,0.89 0.866,0.896l6.27,0.071c0.486,0.003 0.884,-0.389 0.893,-0.875l0.018,-1.22Zm-0.147,29.392l-3.889,-0.071c-0.147,-0.006 -0.283,-0.065 -0.38,-0.162c-0.103,-0.103 -0.162,-0.245 -0.162,-0.398c0.006,-0.306 0.259,-0.548 0.563,-0.545l3.883,0.071l0.012,-1.19c0.009,-0.486 -0.383,-0.89 -0.866,-0.896l-6.273,-0.074c-0.486,-0.003 -0.887,0.392 -0.893,0.875l-0.041,3.518c-0.006,0.483 0.383,0.89 0.869,0.893l6.27,0.071c0.486,0.003 0.884,-0.389 0.893,-0.875l0.015,-1.217Zm0.029,-5.881l-3.889,-0.071c-0.147,-0.006 -0.283,-0.065 -0.38,-0.162c-0.103,-0.103 -0.162,-0.245 -0.162,-0.398c0.006,-0.306 0.259,-0.548 0.563,-0.545l3.883,0.071l0.012,-1.19c0.009,-0.486 -0.383,-0.89 -0.866,-0.896l-6.273,-0.074c-0.486,-0.003 -0.884,0.389 -0.893,0.875l-0.041,3.518c-0.006,0.483 0.386,0.887 0.869,0.893l6.27,0.071c0.486,0.003 0.884,-0.389 0.893,-0.875l0.015,-1.217Zm0.029,-5.875l-3.889,-0.071c-0.147,-0.006 -0.283,-0.065 -0.38,-0.162c-0.103,-0.103 -0.162,-0.245 -0.162,-0.398c0.006,-0.306 0.259,-0.548 0.563,-0.545l3.883,0.071l0.012,-1.19c0.009,-0.486 -0.383,-0.89 -0.866,-0.896l-6.273,-0.074c-0.486,-0.003 -0.884,0.389 -0.893,0.875l-0.041,3.518c-0.006,0.483 0.386,0.887 0.869,0.893l6.27,0.071c0.486,0.003 0.884,-0.389 0.893,-0.875l0.015,-1.217Zm0.029,-5.881l-3.889,-0.071c-0.147,-0.006 -0.283,-0.065 -0.38,-0.162c-0.103,-0.103 -0.162,-0.245 -0.162,-0.398c0.006,-0.306 0.259,-0.548 0.563,-0.545l3.883,0.071l0.015,-1.193c0.006,-0.483 -0.386,-0.887 -0.869,-0.893l-6.273,-0.074c-0.486,-0.003 -0.884,0.389 -0.893,0.875l-0.041,3.518c-0.006,0.483 0.386,0.887 0.869,0.893l6.27,0.071c0.486,0.003 0.884,-0.389 0.893,-0.875l0.015,-1.217Zm0.027,-5.878l-3.889,-0.071c-0.147,-0.006 -0.283,-0.065 -0.38,-0.162c-0.103,-0.103 -0.162,-0.245 -0.162,-0.398c0.006,-0.306 0.259,-0.548 0.563,-0.545l3.883,0.071l0.015,-1.193c0.006,-0.483 -0.386,-0.887 -0.869,-0.893l-6.27,-0.071c-0.486,-0.003 -0.887,0.386 -0.896,0.872l-0.041,3.518c-0.006,0.483 0.386,0.887 0.869,0.893l6.27,0.071c0.486,0.003 0.884,-0.389 0.893,-0.875l0.015,-1.217Zm96.432,73.545c-9.298,-1.208 -17.345,-4.711 -26.001,-7.928c-9.796,-3.633 -18.697,-5.079 -29.044,-2.328c-7.758,2.065 -15.282,7.675 -22.733,10.913c-17.575,8.058 -38.531,13.965 -57.096,6.019c-22.913,-9.808 -28.426,-31.401 -29.283,-54.12c-0.206,-5.415 -0.466,-11.249 -0.601,-17.259l-0.068,-0.021c-0.23,-0.077 -0.404,-0.333 -0.383,-0.572l0.032,-0.362c0.021,-0.245 -0.162,-0.439 -0.404,-0.433l-0.1,0c-0.239,0.003 -0.448,0.2 -0.457,0.445l-0.003,0.056c-0.009,0.245 -0.192,0.545 -0.401,0.672l-1.497,0.913c-0.209,0.133 -0.41,0.038 -0.448,-0.2c0,0 -0.56,-3.518 0.348,-6.411l1.626,1.014c0.209,0.127 0.386,0.421 0.401,0.648c0.012,0.23 0.209,0.427 0.439,0.445c0.227,0.015 0.445,-0.168 0.489,-0.407l0.062,-0.38c0.027,-0.15 0.165,-0.218 0.277,-0.318c-0.301,-33.21 4.637,-69.874 44.866,-72.207c13.789,-0.801 27.171,2.799 39.433,8.809c14.899,7.304 34.595,19.168 51.507,11.161c8.633,-4.089 19.292,-9.746 29.053,-9.608c13.046,0.183 28.152,4.257 28.225,20.17c0.006,1.208 -0.068,2.413 -0.192,3.627c0.209,0.103 0.348,0.365 0.303,0.592l-0.071,0.354c-0.044,0.239 0.112,0.454 0.354,0.477l0.097,0.009c0.242,0.024 0.471,-0.153 0.51,-0.392l0.006,-0.053c0.038,-0.239 0.25,-0.521 0.471,-0.625l1.588,-0.745c0.221,-0.103 0.407,0.012 0.421,0.256c0,0 0.174,3.556 -1.046,6.332l-1.508,-1.19c-0.192,-0.15 -0.336,-0.46 -0.321,-0.686c0.015,-0.227 -0.162,-0.451 -0.389,-0.489c-0.227,-0.038 -0.466,0.118 -0.533,0.351l-0.106,0.371c-0.068,0.233 -0.283,0.436 -0.483,0.448c-0.062,0.003 -0.097,-0.038 -0.15,-0.068c-1.402,6.093 -4.069,12.053 -7.03,17.306c-1.249,2.216 -0.657,3.957 0.757,5.365l-7.796,-0.047c-0.56,-1.732 -1.332,-3.488 -2.49,-5.283c-0.793,-1.223 -1.747,-2.378 -2.834,-3.465c-7.089,-7.083 -19.719,-11.305 -28.432,-13.706c-14.584,-4.025 -31.11,-4.805 -45.874,-1.008c-0.018,5.898 -0.038,11.794 -0.059,17.695l0.504,0.003c1.759,0.003 3.303,1.559 3.3,3.323l-0.056,34.127c-0.009,1.824 -1.485,3.312 -3.303,3.332l-0.58,0.009c-0.003,2.307 -0.012,4.608 -0.024,6.912c-0.006,2.363 -0.018,4.732 -0.021,7.092c3.871,0.766 7.015,4.305 7.053,8.309c0.044,4.234 -3.046,7.772 -7.109,8.482c-0.003,0.604 -0.006,1.208 -0.009,1.812c-0.003,1.158 0.197,1.824 0.539,2.166c0.763,0.763 2.236,-0.097 3.786,-0.793c4.844,-2.18 10.103,-3.603 15.344,-4.402c11.384,-1.732 20.309,2.69 30.535,7c7.69,3.241 15.433,5.238 23.841,4.437c4.487,-0.433 13.615,-1.305 14.832,-6.794c0.483,-2.186 -0.2,-3.901 -1.603,-5.303c-4.643,-4.643 -17.147,-5.845 -21.084,-9.145c-0.875,-0.74 -1.753,-1.535 -2.596,-2.378c-5.43,-5.43 -9.572,-12.89 -5.085,-20.235c0.563,-0.928 1.196,-1.662 1.859,-2.342l5.563,-0.082c-2.581,1.78 -4.461,4.213 -4.393,7.84c0.121,6.827 3.874,11.994 9.555,15.406c7.746,4.658 23.093,3.606 20.824,16.328c-1.744,9.841 -17.398,11.759 -25.108,10.76Zm-105.217,-82.72l-0.286,34.775c-0.006,0.583 0.498,1.081 1.069,1.069l38.287,-0.404c0.607,-0.006 1.12,-0.524 1.12,-1.131l0.056,-34.127c0.003,-0.298 -0.115,-0.575 -0.327,-0.787c-0.209,-0.209 -0.48,-0.327 -0.775,-0.327l-38.031,-0.171c-0.607,-0.006 -1.105,0.486 -1.114,1.102Zm37.002,67.502c4.128,-0.044 7.469,-3.432 7.425,-7.531c-0.041,-4.095 -3.45,-7.416 -7.575,-7.375l-60.979,0.61c-4.125,0.041 -7.466,3.429 -7.422,7.528c0.038,4.098 3.444,7.422 7.572,7.377l60.979,-0.61Z" style="fill-rule:nonzero;"/></g></svg>